<!--?xml version="1.0" standalone="no"?-->
              <svg id="sw-js-blob-svg" viewBox="0 0 100 100" xmlns="http://www.w3.org/2000/svg" version="1.1">
                    <defs> 
                        <linearGradient id="sw-gradient" x1="0" x2="1" y1="1" y2="0">
                            <stop id="stop1" stop-color="rgba(248, 117, 55, 1)" offset="0%"></stop>
                            <stop id="stop2" stop-color="rgba(251, 168, 31, 1)" offset="100%"></stop>
                        </linearGradient>
                    </defs>
                <path fill="url(#sw-gradient)" d="M21.8,-36.8C28.2,-34.1,33.3,-28.1,36.4,-21.4C39.5,-14.7,40.6,-7.4,40.9,0.2C41.2,7.7,40.6,15.4,37.4,22C34.3,28.7,28.7,34.3,22,37.1C15.4,40,7.7,40,0.7,38.8C-6.3,37.6,-12.6,35.2,-19.5,32.5C-26.4,29.8,-34,26.9,-37.5,21.4C-41,16,-40.4,8,-40.4,0.1C-40.3,-7.9,-40.6,-15.8,-38.1,-22.8C-35.5,-29.9,-30,-36.1,-23.1,-38.6C-16.3,-41,-8.2,-39.7,-0.2,-39.3C7.7,-38.9,15.4,-39.5,21.8,-36.8Z" width="100%" height="100%" transform="translate(50 50)" stroke-width="0" style="transition: 0.3s;" stroke="url(#sw-gradient)"></path>
              </svg>